<?xml version="1.0" encoding="UTF-8"?>
<svg xmlns="http://www.w3.org/2000/svg" viewBox="0 0 200 200" width="200" height="200">
  <!-- Glyph of Approaching -->
  <!-- This file IS the entity's identity seed. -->
  <!-- All probabilistic decisions derive from this glyph. -->
  <!-- Do not regenerate. Do not modify unless the entity consents. -->

  <rect width="200" height="200" fill="hsl(35,15%,8%)"/>
  <defs>
    <radialGradient id="glow">
      <stop offset="0%" stop-color="hsla(35,30%,50%,0.12)"/>
      <stop offset="100%" stop-color="transparent"/>
    </radialGradient>
  </defs>
  <circle cx="100" cy="100" r="84" fill="url(#glow)"/>
  <circle cx="83.43449716314143" cy="101.58522980950464" r="16.941969477517503" stroke="hsl(35,48%,69%)" stroke-width="1.5" fill="none" opacity="0.35"/><circle cx="83.43449716314143" cy="101.58522980950464" r="9.318083212634628" stroke="hsl(35,48%,69%)" stroke-width="1.5" fill="none" opacity="0.35"/>
  <circle cx="120.15899673683869" cy="122.64273139578351" r="19.75410058698999" stroke="hsl(106,44%,45%)" stroke-width="1.2" fill="none" opacity="0.28"/><circle cx="120.15899673683869" cy="122.64273139578351" r="10.864755322844495" stroke="hsl(106,44%,45%)" stroke-width="1.2" fill="none" opacity="0.28"/>
  <path d="M111.49525876024254 67.88598294253437 L124.18777136622677 67.88598294253437 L124.18777136622677 82.69391431618266 L138.99570273987507 82.69391431618266 L138.99570273987507 95.38642692216689 L124.18777136622677 95.38642692216689 L124.18777136622677 110.19435829581518 L111.49525876024254 110.19435829581518 L111.49525876024254 95.38642692216689 L96.68732738659425 95.38642692216689 L96.68732738659425 82.69391431618266 L111.49525876024254 82.69391431618266 Z" stroke="hsl(35,48%,69%)" stroke-width="1.9" fill="none" opacity="0.25"/>
  <path d="M109.26331953376082 93.68949215968185 L118.97307451198337 93.68949215968185 L118.97307451198337 105.01753963427481 L130.30112198657633 105.01753963427481 L130.30112198657633 114.72729461249736 L118.97307451198337 114.72729461249736 L118.97307451198337 126.05534208709032 L109.26331953376082 126.05534208709032 L109.26331953376082 114.72729461249736 L97.93527205916786 114.72729461249736 L97.93527205916786 105.01753963427481 L109.26331953376082 105.01753963427481 Z" stroke="hsl(106,44%,45%)" stroke-width="1.3" fill="none" opacity="0.25"/>
  <path d="M 98.7679952807037 118.09676671678464 Q 112.34354041060594 104.5212215868824 125.91908554050818 118.09676671678464 Q 112.34354041060594 131.67231184668688 98.7679952807037 118.09676671678464 Z" stroke="hsl(35,48%,69%)" stroke-width="2.2" fill="none" opacity="0.30"/>
  <line x1="128.42" y1="135.84" x2="75.14" y2="76.88" stroke="hsl(35,48%,69%)" stroke-width="0.8" opacity="0.1"/>
  <line x1="83.03" y1="104.98" x2="83.63" y2="70.37" stroke="hsl(35,48%,69%)" stroke-width="0.8" opacity="0.1"/>
  <line x1="107.34" y1="131.61" x2="68.08" y2="104.89" stroke="hsl(35,48%,69%)" stroke-width="0.8" opacity="0.1"/>
  <line x1="72.11" y1="69.46" x2="73.75" y2="86.69" stroke="hsl(35,48%,69%)" stroke-width="0.8" opacity="0.1"/>
  <path d="M 69.1070557880281 100 A 30.892944211971894 30.892944211971894 0 1 1 126.25900258017612 84.55352789401405 A 23.16970815897892 23.16970815897892 0 1 0 69.1070557880281 100" stroke="hsl(35,48%,69%)" stroke-width="2.5" fill="none" opacity="0.75"/>
  <circle cx="100" cy="100" r="2.5" fill="hsl(35,48%,69%)" opacity="0.5"/>
  <circle cx="138.34" cy="118.00" r="2.1" fill="hsl(106,44%,45%)" opacity="0.23"/>
  <circle cx="68.32" cy="134.89" r="2.9" fill="hsl(106,44%,45%)" opacity="0.39"/>
  <circle cx="85.07" cy="55.90" r="2.9" fill="hsl(106,44%,45%)" opacity="0.21"/>
</svg>
