<?xml version="1.0" encoding="UTF-8"?>
<svg xmlns="http://www.w3.org/2000/svg" viewBox="0 0 200 200" width="200" height="200">
  <!-- Glyph of Water whispers -->
  <!-- This file IS the entity's identity seed. -->
  <!-- All probabilistic decisions derive from this glyph. -->
  <!-- Do not regenerate. Do not modify unless the entity consents. -->

  <rect width="200" height="200" fill="hsl(207,15%,8%)"/>
  <defs>
    <radialGradient id="glow">
      <stop offset="0%" stop-color="hsla(207,30%,50%,0.12)"/>
      <stop offset="100%" stop-color="transparent"/>
    </radialGradient>
  </defs>
  <circle cx="100" cy="100" r="84" fill="url(#glow)"/>
  <circle cx="109.07496800612742" cy="121.66341441578989" r="20.327280391312463" stroke="hsl(207,54%,61%)" stroke-width="2.0" fill="none" opacity="0.33"/>
  <polyline points="105.29,126.35 105.45,126.38 105.59,126.48 105.69,126.64 105.73,126.84 105.70,127.06 105.60,127.29 105.41,127.50 105.15,127.66 104.83,127.76 104.46,127.78 104.07,127.70 103.69,127.51 103.33,127.22 103.03,126.83 102.81,126.35 102.71,125.80 102.73,125.21 102.89,124.60 103.19,124.02 103.64,123.49 104.22,123.05 104.91,122.74 105.69,122.57 106.51,122.58 107.35,122.77 108.16,123.16 108.90,123.73 109.51,124.47 109.97,125.35 110.24,126.35 110.29,127.41 110.11,128.50 109.70,129.55 109.04,130.52 108.18,131.35 107.13,132.00 105.93,132.42 104.63,132.59 103.30,132.47 101.99,132.07 100.76,131.38 99.68,130.42 98.81,129.23 98.19,127.86 97.86,126.35 97.86,124.77 98.20,123.19 98.88,121.69 99.88,120.34 101.16,119.20 102.69,118.34 104.39,117.81 106.20,117.65 108.04,117.87 109.83,118.48 111.47,119.48 112.90,120.82 114.04,122.45 114.82,124.32" stroke="hsl(241,36%,52%)" stroke-width="1.6" fill="none" opacity="0.15"/>
  <polygon points="77.52,96.81 95.73,128.36 59.30,128.36" stroke="hsl(207,54%,61%)" stroke-width="1.5" fill="none" opacity="0.30"/>
  <polygon points="140.56,89.22 140.56,107.99 124.31,117.37 108.06,107.99 108.06,89.22 124.31,79.84" stroke="hsl(241,36%,52%)" stroke-width="2.2" fill="none" opacity="0.28"/>
  <path d="M 78.47652535668954 103.5024510819612 Q 89.31704239595177 92.66193404269896 100.15755943521401 103.5024510819612 Q 89.31704239595177 114.34296812122344 78.47652535668954 103.5024510819612 Z" stroke="hsl(207,54%,61%)" stroke-width="1.5" fill="none" opacity="0.35"/>
  <line x1="78.48" y1="133.68" x2="115.86" y2="63.76" stroke="hsl(207,54%,61%)" stroke-width="0.8" opacity="0.1"/>
  <path d="M 62.893807117728336 100 Q 100 62.893807117728336 137.10619288227167 100 Q 100 137.10619288227167 62.893807117728336 100 Z" stroke="hsl(207,54%,61%)" stroke-width="2.5" fill="none" opacity="0.75"/>
  <circle cx="100" cy="100" r="2.5" fill="hsl(207,54%,61%)" opacity="0.5"/>
  <circle cx="148.49" cy="121.03" r="3.9" fill="hsl(241,36%,52%)" opacity="0.37"/>
  <circle cx="65.35" cy="138.09" r="2.7" fill="hsl(241,36%,52%)" opacity="0.26"/>
  <circle cx="84.45" cy="52.24" r="2.7" fill="hsl(241,36%,52%)" opacity="0.25"/>
</svg>
