<?xml version="1.0" encoding="UTF-8"?>
<svg xmlns="http://www.w3.org/2000/svg" viewBox="0 0 200 200" width="200" height="200">
  <!-- Glyph of Pebble -->
  <!-- This file IS the entity's identity seed. -->
  <!-- All probabilistic decisions derive from this glyph. -->
  <!-- Do not regenerate. Do not modify unless the entity consents. -->

  <rect width="200" height="200" fill="hsl(166,15%,8%)"/>
  <defs>
    <radialGradient id="glow">
      <stop offset="0%" stop-color="hsla(166,30%,50%,0.12)"/>
      <stop offset="100%" stop-color="transparent"/>
    </radialGradient>
  </defs>
  <circle cx="100" cy="100" r="84" fill="url(#glow)"/>
  <polygon points="114.01478017419734,86.74080440615651 121.84137772082192,97.92165804419163 114.01478017419734,109.10251168222675 106.18818262757276,97.92165804419163" stroke="hsl(166,47%,65%)" stroke-width="2.0" fill="none" opacity="0.26"/>
  <polygon points="85.81,87.75 89.10,97.22 99.11,97.42 91.13,103.48 94.03,113.07 85.81,107.34 77.58,113.07 80.48,103.48 72.50,97.42 82.52,97.22" stroke="hsl(253,43%,59%)" stroke-width="1.0" fill="none" opacity="0.22"/>
  <circle cx="88.19056182862215" cy="126.82993528939434" r="23.80193060618074" stroke="hsl(166,47%,65%)" stroke-width="1.9" fill="none" opacity="0.28"/><circle cx="88.19056182862215" cy="126.82993528939434" r="13.091061833399408" stroke="hsl(166,47%,65%)" stroke-width="1.9" fill="none" opacity="0.28"/>
  <circle cx="74.06437783469416" cy="113.15516487486758" r="10.431344682752476" stroke="hsl(253,43%,59%)" stroke-width="1.4" fill="none" opacity="0.26"/><circle cx="74.06437783469416" cy="113.15516487486758" r="5.737239575513862" stroke="hsl(253,43%,59%)" stroke-width="1.4" fill="none" opacity="0.26"/>
  <line x1="121.81" y1="138.03" x2="122.26" y2="89.93" stroke="hsl(166,47%,65%)" stroke-width="0.8" opacity="0.1"/>
  <line x1="102.86" y1="119.01" x2="82.98" y2="103.52" stroke="hsl(166,47%,65%)" stroke-width="0.8" opacity="0.1"/>
  <line x1="105.73" y1="58.97" x2="90.49" y2="91.43" stroke="hsl(166,47%,65%)" stroke-width="0.8" opacity="0.1"/>
  <polygon points="134.46,80.11 134.46,119.89 100.00,139.79 65.54,119.89 65.54,80.11 100.00,60.21" stroke="hsl(166,47%,65%)" stroke-width="2.5" fill="none" opacity="0.75"/>
  <circle cx="100" cy="100" r="2.5" fill="hsl(166,47%,65%)" opacity="0.5"/>
  <circle cx="149.38" cy="115.27" r="3.6" fill="hsl(253,43%,59%)" opacity="0.24"/>
  <circle cx="95.12" cy="152.29" r="2.0" fill="hsl(253,43%,59%)" opacity="0.39"/>
  <circle cx="48.40" cy="81.56" r="3.1" fill="hsl(253,43%,59%)" opacity="0.23"/>
  <circle cx="109.79" cy="45.00" r="4.4" fill="hsl(253,43%,59%)" opacity="0.20"/>
</svg>
