<?xml version="1.0" encoding="UTF-8"?>
<svg xmlns="http://www.w3.org/2000/svg" viewBox="0 0 200 200" width="200" height="200">
  <!-- Glyph of Blue -->
  <!-- This file IS the entity's identity seed. -->
  <!-- All probabilistic decisions derive from this glyph. -->
  <!-- Do not regenerate. Do not modify unless the entity consents. -->

  <rect width="200" height="200" fill="hsl(343,15%,8%)"/>
  <defs>
    <radialGradient id="glow">
      <stop offset="0%" stop-color="hsla(343,30%,50%,0.12)"/>
      <stop offset="100%" stop-color="transparent"/>
    </radialGradient>
  </defs>
  <circle cx="100" cy="100" r="84" fill="url(#glow)"/>
  <polygon points="126.31,109.65 126.31,132.76 106.30,144.31 86.28,132.76 86.28,109.65 106.30,98.09" stroke="hsl(343,51%,56%)" stroke-width="1.5" fill="none" opacity="0.25"/>
  <polyline points="107.97,88.13 108.30,88.20 108.59,88.41 108.80,88.73 108.88,89.14 108.82,89.60 108.60,90.07 108.22,90.49 107.69,90.83 107.03,91.04 106.27,91.07 105.47,90.91 104.67,90.53 103.94,89.93 103.32,89.12 102.87,88.13 102.65,87.00 102.69,85.78 103.02,84.53 103.65,83.33 104.57,82.24 105.77,81.34 107.19,80.69 108.79,80.36 110.49,80.37 112.22,80.77 113.88,81.56 115.40,82.74 116.67,84.26 117.61,86.08 118.17,88.13 118.28,90.32 117.91,92.55 117.05,94.72 115.70,96.72 113.92,98.43 111.75,99.76 109.29,100.63 106.62,100.97 103.88,100.73 101.18,99.90 98.65,98.48 96.43,96.52 94.62,94.07 93.35,91.24 92.68,88.13 92.68,84.88 93.38,81.63 94.78,78.54 96.83,75.75 99.48,73.41 102.62,71.65 106.13,70.55 109.86,70.22 113.64,70.68 117.32,71.94 120.71,73.99 123.64,76.74 125.98,80.11 127.58,83.96" stroke="hsl(414,31%,54%)" stroke-width="1.0" fill="none" opacity="0.16"/>
  <polygon points="119.49645802659006,110.6615251204939 126.26412074656963,120.32961472046472 119.49645802659006,129.99770432043553 112.7287953066105,120.32961472046472" stroke="hsl(343,51%,56%)" stroke-width="1.7" fill="none" opacity="0.29"/>
  <polygon points="81.74922297241072,91.472821366153 92.7744679190258,107.22317128988881 81.74922297241072,122.97352121362462 70.72397802579565,107.22317128988881" stroke="hsl(414,31%,54%)" stroke-width="1.3" fill="none" opacity="0.27"/>
  <line x1="107.96" y1="115.12" x2="67.43" y2="70.10" stroke="hsl(343,51%,56%)" stroke-width="0.8" opacity="0.1"/>
  <line x1="81.53" y1="83.26" x2="76.96" y2="94.67" stroke="hsl(343,51%,56%)" stroke-width="0.8" opacity="0.1"/>
  <line x1="83.34" y1="128.81" x2="109.76" y2="129.56" stroke="hsl(343,51%,56%)" stroke-width="0.8" opacity="0.1"/>
  <polygon points="100,65.76994189784857 123.961040671506,100 100,134.23005810215142 76.038959328494,100" stroke="hsl(343,51%,56%)" stroke-width="2.5" fill="none" opacity="0.75"/>
  <circle cx="100" cy="100" r="2.5" fill="hsl(343,51%,56%)" opacity="0.5"/>
  <circle cx="148.10" cy="114.47" r="2.5" fill="hsl(414,31%,54%)" opacity="0.30"/>
  <circle cx="55.98" cy="127.41" r="4.6" fill="hsl(414,31%,54%)" opacity="0.27"/>
  <circle cx="88.90" cy="49.42" r="3.9" fill="hsl(414,31%,54%)" opacity="0.29"/>
</svg>
