<?xml version="1.0" encoding="UTF-8"?>
<svg xmlns="http://www.w3.org/2000/svg" viewBox="0 0 200 200" width="200" height="200">
  <!-- Glyph of Red -->
  <!-- This file IS the entity's identity seed. -->
  <!-- All probabilistic decisions derive from this glyph. -->
  <!-- Do not regenerate. Do not modify unless the entity consents. -->

  <rect width="200" height="200" fill="hsl(30,15%,8%)"/>
  <defs>
    <radialGradient id="glow">
      <stop offset="0%" stop-color="hsla(30,30%,50%,0.12)"/>
      <stop offset="100%" stop-color="transparent"/>
    </radialGradient>
  </defs>
  <circle cx="100" cy="100" r="84" fill="url(#glow)"/>
  <path d="M109.05429266480093 59.22906230351987 L117.75987492207321 59.22906230351987 L117.75987492207321 69.38557493700421 L127.91638755555755 69.38557493700421 L127.91638755555755 78.09115719427649 L117.75987492207321 78.09115719427649 L117.75987492207321 88.24766982776083 L109.05429266480093 88.24766982776083 L109.05429266480093 78.09115719427649 L98.89778003131659 78.09115719427649 L98.89778003131659 69.38557493700421 L109.05429266480093 69.38557493700421 Z" stroke="hsl(30,38%,58%)" stroke-width="1.6" fill="none" opacity="0.18"/>
  <path d="M 69.97540131126645 108.80015272647447 Q 81.87453163693692 96.901022400804 93.77366196260739 108.80015272647447 Q 81.87453163693692 120.69928305214493 69.97540131126645 108.80015272647447 Z" stroke="hsl(75,33%,60%)" stroke-width="1.4" fill="none" opacity="0.19"/>
  <path d="M 79.58686112511312 80.32268302479945 A 16.776885085531404 16.776885085531404 0 1 1 110.62409853334621 71.93424048203374 A 12.582663814148553 12.582663814148553 0 1 0 79.58686112511312 80.32268302479945" stroke="hsl(30,38%,58%)" stroke-width="2.1" fill="none" opacity="0.16"/>
  <path d="M 50.49782234099552 84.48636249864249 A 21.847117347500394 21.847117347500394 0 1 1 90.91498943387126 73.5628038248923 A 16.385338010625297 16.385338010625297 0 1 0 50.49782234099552 84.48636249864249" stroke="hsl(75,33%,60%)" stroke-width="1.6" fill="none" opacity="0.16"/>
  <line x1="93.46" y1="113.08" x2="78.93" y2="121.53" stroke="hsl(30,38%,58%)" stroke-width="0.8" opacity="0.1"/>
  <line x1="110.04" y1="80.03" x2="62.04" y2="118.17" stroke="hsl(30,38%,58%)" stroke-width="0.8" opacity="0.1"/>
  <line x1="78.89" y1="105.89" x2="106.58" y2="114.04" stroke="hsl(30,38%,58%)" stroke-width="0.8" opacity="0.1"/>
  <line x1="76.56" y1="70.45" x2="86.43" y2="103.05" stroke="hsl(30,38%,58%)" stroke-width="0.8" opacity="0.1"/>
  <path d="M 71.0262992689631 100 Q 100 71.0262992689631 128.9737007310369 100 Q 100 128.9737007310369 71.0262992689631 100 Z" stroke="hsl(30,38%,58%)" stroke-width="2.5" fill="none" opacity="0.75"/>
  <circle cx="100" cy="100" r="2.5" fill="hsl(30,38%,58%)" opacity="0.5"/>
  <circle cx="143.39" cy="104.99" r="3.8" fill="hsl(75,33%,60%)" opacity="0.31"/>
  <circle cx="66.79" cy="121.61" r="2.1" fill="hsl(75,33%,60%)" opacity="0.35"/>
  <circle cx="92.22" cy="57.11" r="4.1" fill="hsl(75,33%,60%)" opacity="0.28"/>
</svg>
