<?xml version="1.0" encoding="UTF-8"?>
<svg xmlns="http://www.w3.org/2000/svg" viewBox="0 0 200 200" width="200" height="200">
  <!-- Glyph of Attending -->
  <!-- This file IS the entity's identity seed. -->
  <!-- All probabilistic decisions derive from this glyph. -->
  <!-- Do not regenerate. Do not modify unless the entity consents. -->

  <rect width="200" height="200" fill="hsl(47,15%,8%)"/>
  <defs>
    <radialGradient id="glow">
      <stop offset="0%" stop-color="hsla(47,30%,50%,0.12)"/>
      <stop offset="100%" stop-color="transparent"/>
    </radialGradient>
  </defs>
  <circle cx="100" cy="100" r="84" fill="url(#glow)"/>
  <path d="M74.21825187908823 86.71285042960947 L87.57617377350252 86.71285042960947 L87.57617377350252 102.29709263975946 L103.1604159836525 102.29709263975946 L103.1604159836525 115.65501453417374 L87.57617377350252 115.65501453417374 L87.57617377350252 131.23925674432374 L74.21825187908823 131.23925674432374 L74.21825187908823 115.65501453417374 L58.63400966893825 115.65501453417374 L58.63400966893825 102.29709263975946 L74.21825187908823 102.29709263975946 Z" stroke="hsl(47,45%,63%)" stroke-width="2.0" fill="none" opacity="0.25"/>
  <circle cx="89.26320203769524" cy="117.50445968398537" r="11.795599598247184" stroke="hsl(126,33%,48%)" stroke-width="1.5" fill="none" opacity="0.34"/>
  <line x1="72.31" y1="80.52" x2="82.36" y2="121.21" stroke="hsl(47,45%,63%)" stroke-width="0.8" opacity="0.1"/>
  <line x1="79.79" y1="61.79" x2="107.10" y2="87.01" stroke="hsl(47,45%,63%)" stroke-width="0.8" opacity="0.1"/>
  <line x1="60.31" y1="115.45" x2="110.49" y2="68.14" stroke="hsl(47,45%,63%)" stroke-width="0.8" opacity="0.1"/>
  <line x1="74.93" y1="137.11" x2="132.24" y2="100.57" stroke="hsl(47,45%,63%)" stroke-width="0.8" opacity="0.1"/>
  <polygon points="100,65.84674347736569 123.90727956584402,100 100,134.1532565226343 76.09272043415598,100" stroke="hsl(47,45%,63%)" stroke-width="2.5" fill="none" opacity="0.75"/>
  <circle cx="100" cy="100" r="2.5" fill="hsl(47,45%,63%)" opacity="0.5"/>
  <circle cx="146.78" cy="112.21" r="3.3" fill="hsl(126,33%,48%)" opacity="0.27"/>
  <circle cx="59.98" cy="127.84" r="4.0" fill="hsl(126,33%,48%)" opacity="0.31"/>
  <circle cx="84.45" cy="56.95" r="2.7" fill="hsl(126,33%,48%)" opacity="0.24"/>
</svg>
