<?xml version="1.0" encoding="UTF-8"?>
<svg xmlns="http://www.w3.org/2000/svg" viewBox="0 0 200 200" width="200" height="200">
  <!-- Glyph of Outside -->
  <!-- This file IS the entity's identity seed. -->
  <!-- All probabilistic decisions derive from this glyph. -->
  <!-- Do not regenerate. Do not modify unless the entity consents. -->

  <rect width="200" height="200" fill="hsl(51,15%,8%)"/>
  <defs>
    <radialGradient id="glow">
      <stop offset="0%" stop-color="hsla(51,30%,50%,0.12)"/>
      <stop offset="100%" stop-color="transparent"/>
    </radialGradient>
  </defs>
  <circle cx="100" cy="100" r="84" fill="url(#glow)"/>
  <path d="M102.96208127462232 91.89096228646618 L116.63530995056261 91.89096228646618 L116.63530995056261 107.8430624083965 L132.58741007249296 107.8430624083965 L132.58741007249296 121.5162910843368 L116.63530995056261 121.5162910843368 L116.63530995056261 137.46839120626714 L102.96208127462232 137.46839120626714 L102.96208127462232 121.5162910843368 L87.00998115269199 121.5162910843368 L87.00998115269199 107.8430624083965 L102.96208127462232 107.8430624083965 Z" stroke="hsl(51,44%,63%)" stroke-width="1.5" fill="none" opacity="0.25"/>
  <polyline points="88.61,113.26 88.96,113.33 89.27,113.55 89.49,113.89 89.58,114.33 89.52,114.82 89.28,115.32 88.88,115.77 88.31,116.13 87.61,116.35 86.80,116.39 85.95,116.21 85.10,115.81 84.32,115.17 83.66,114.31 83.19,113.26 82.95,112.05 82.99,110.76 83.34,109.43 84.01,108.15 84.99,106.99 86.26,106.03 87.78,105.34 89.48,104.98 91.29,105.00 93.13,105.43 94.90,106.27 96.51,107.52 97.86,109.14 98.87,111.08 99.46,113.26 99.58,115.59 99.18,117.96 98.27,120.27 96.84,122.39 94.94,124.22 92.63,125.64 90.01,126.56 87.17,126.92 84.25,126.67 81.38,125.78 78.69,124.28 76.32,122.18 74.40,119.58 73.05,116.56 72.34,113.26 72.34,109.80 73.08,106.34 74.57,103.05 76.75,100.09 79.57,97.60 82.91,95.71 86.65,94.55 90.61,94.19 94.65,94.68 98.56,96.03 102.16,98.21 105.29,101.14 107.77,104.72 109.48,108.82" stroke="hsl(119,44%,52%)" stroke-width="1.3" fill="none" opacity="0.26"/>
  <path d="M 75.46993854665672 129.48276203525984 Q 91.9594557143232 112.99324486759336 108.44897288198968 129.48276203525984 Q 91.9594557143232 145.9722792029263 75.46993854665672 129.48276203525984 Z" stroke="hsl(51,44%,63%)" stroke-width="1.7" fill="none" opacity="0.31"/>
  <polyline points="117.31,108.99 117.64,109.06 117.91,109.26 118.11,109.57 118.19,109.97 118.14,110.42 117.92,110.87 117.55,111.28 117.04,111.61 116.40,111.81 115.67,111.84 114.90,111.68 114.12,111.31 113.41,110.73 112.81,109.95 112.38,108.99 112.17,107.90 112.21,106.72 112.53,105.52 113.14,104.35 114.03,103.30 115.18,102.43 116.56,101.80 118.10,101.48 119.75,101.49 121.42,101.88 123.03,102.64 124.49,103.78 125.72,105.25 126.64,107.01 127.17,108.99 127.28,111.11 126.92,113.27 126.09,115.37 124.79,117.30 123.07,118.95 120.97,120.25 118.59,121.09 116.01,121.41 113.35,121.18 110.74,120.38 108.30,119.01 106.15,117.11 104.40,114.74 103.17,112.00 102.53,108.99 102.53,105.85 103.20,102.71 104.55,99.72 106.54,97.03 109.10,94.76 112.13,93.05 115.53,92.00 119.14,91.67 122.80,92.11 126.35,93.34 129.63,95.32 132.47,97.98 134.73,101.24 136.28,104.96" stroke="hsl(119,44%,52%)" stroke-width="1.2" fill="none" opacity="0.32"/>
  <path d="M 68.24274750964798 117.5393768925349 A 23.13896052459158 23.13896052459158 0 1 1 111.0498244801424 105.9698966302391 A 17.354220393443686 17.354220393443686 0 1 0 68.24274750964798 117.5393768925349" stroke="hsl(51,44%,63%)" stroke-width="1.7" fill="none" opacity="0.30"/>
  <line x1="86.99" y1="102.26" x2="118.93" y2="63.36" stroke="hsl(51,44%,63%)" stroke-width="0.8" opacity="0.1"/>
  <line x1="133.36" y1="86.60" x2="63.74" y2="87.79" stroke="hsl(51,44%,63%)" stroke-width="0.8" opacity="0.1"/>
  <polyline points="100.00,100.00 100.49,100.10 100.91,100.41 101.21,100.88 101.34,101.48 101.25,102.16 100.93,102.85 100.37,103.47 99.58,103.97 98.61,104.27 97.50,104.32 96.33,104.08 95.15,103.52 94.07,102.64 93.16,101.45 92.51,100.00 92.19,98.34 92.25,96.55 92.73,94.72 93.65,92.95 95.01,91.35 96.76,90.03 98.85,89.08 101.20,88.58 103.70,88.61 106.24,89.19 108.68,90.36 110.90,92.08 112.77,94.32 114.16,96.99 114.97,100.00 115.14,103.22 114.59,106.50 113.33,109.68 111.36,112.61 108.73,115.13 105.55,117.09 101.93,118.37 98.02,118.86 93.98,118.51 90.02,117.29 86.31,115.21 83.04,112.32 80.39,108.73 78.52,104.57 77.54,100.00 77.54,95.23 78.57,90.46 80.62,85.92 83.63,81.82 87.52,78.39 92.13,75.79 97.29,74.19 102.77,73.69 108.33,74.37 113.73,76.23 118.70,79.23 123.02,83.28 126.45,88.22 128.81,93.88" stroke="hsl(51,44%,63%)" stroke-width="2.5" fill="none" opacity="0.75"/>
  <circle cx="100" cy="100" r="2.5" fill="hsl(51,44%,63%)" opacity="0.5"/>
  <circle cx="146.81" cy="100.12" r="4.1" fill="hsl(119,44%,52%)" opacity="0.22"/>
</svg>
