<?xml version="1.0" encoding="UTF-8"?>
<svg xmlns="http://www.w3.org/2000/svg" viewBox="0 0 200 200" width="200" height="200">
  <!-- Glyph of Inside -->
  <!-- This file IS the entity's identity seed. -->
  <!-- All probabilistic decisions derive from this glyph. -->
  <!-- Do not regenerate. Do not modify unless the entity consents. -->

  <rect width="200" height="200" fill="hsl(360,15%,8%)"/>
  <defs>
    <radialGradient id="glow">
      <stop offset="0%" stop-color="hsla(360,30%,50%,0.12)"/>
      <stop offset="100%" stop-color="transparent"/>
    </radialGradient>
  </defs>
  <circle cx="100" cy="100" r="84" fill="url(#glow)"/>
  <path d="M 73.71985191775653 99.78897509571298 Q 87.35061818809487 86.15820882537464 100.98138445843321 99.78897509571298 Q 87.35061818809487 113.41974136605133 73.71985191775653 99.78897509571298 Z" stroke="hsl(360,42%,69%)" stroke-width="1.9" fill="none" opacity="0.27"/>
  <polygon points="103.80,55.75 108.64,69.67 123.38,69.97 111.63,78.88 115.90,92.98 103.80,84.56 91.71,92.98 95.98,78.88 84.23,69.97 98.97,69.67" stroke="hsl(448,31%,47%)" stroke-width="1.9" fill="none" opacity="0.23"/>
  <path d="M 107.97901002399072 83.57691264216648 A 9.516041637878903 9.516041637878903 0 1 1 125.58368705406669 78.81889182322702 A 7.137031228409177 7.137031228409177 0 1 0 107.97901002399072 83.57691264216648" stroke="hsl(360,42%,69%)" stroke-width="2.0" fill="none" opacity="0.16"/>
  <line x1="138.11" y1="97.99" x2="113.26" y2="87.97" stroke="hsl(360,42%,69%)" stroke-width="0.8" opacity="0.1"/>
  <polygon points="130.14,82.60 130.14,117.40 100.00,134.80 69.86,117.40 69.86,82.60 100.00,65.20" stroke="hsl(360,42%,69%)" stroke-width="2.5" fill="none" opacity="0.75"/>
  <circle cx="100" cy="100" r="2.5" fill="hsl(360,42%,69%)" opacity="0.5"/>
  <circle cx="143.88" cy="117.75" r="4.7" fill="hsl(448,31%,47%)" opacity="0.34"/>
  <circle cx="67.21" cy="132.75" r="4.6" fill="hsl(448,31%,47%)" opacity="0.33"/>
  <circle cx="96.22" cy="51.32" r="2.8" fill="hsl(448,31%,47%)" opacity="0.38"/>
</svg>
